<svg xmlns="http://www.w3.org/2000/svg" viewBox="0 0 512 512"><path fill="#752803" fill-rule="evenodd" d="M253.43,453.81C255.87,444.87 256.38,441.30 256.10,435.37C256.01,433.39 255.73,433.48 252.34,436.58C250.33,438.42 247.86,441.18 246.85,442.71C245.84,444.25 245.01,445.00 245.01,444.40C245.00,443.40 245.87,442.06 251.62,434.19C254.41,430.37 254.57,423.05 251.98,417.40C250.75,414.70 249.16,410.93 248.45,409.00C247.12,405.41 246.93,405.57 245.39,411.50C244.61,414.50 244.61,414.50 244.25,411.91C244.06,410.49 244.62,407.34 245.50,404.91C247.39,399.70 251.97,382.14 251.99,380.05C252.00,379.16 250.53,380.00 248.25,382.19C246.19,384.16 242.93,386.57 241.00,387.53C225.48,395.30 221.18,405.08 227.40,418.50C231.03,426.32 231.09,432.05 227.62,438.57C226.18,441.27 225.00,442.90 225.00,442.19C225.00,441.48 225.70,439.54 226.56,437.88C228.95,433.27 228.59,427.72 225.50,421.41L222.76,415.81 L220.94,419.88C219.94,422.12 217.26,425.88 214.99,428.23C212.73,430.58 210.62,433.75 210.31,435.27C210.00,436.79 209.30,438.31 208.76,438.65C206.92,439.79 209.13,432.57 211.84,428.63C217.84,419.88 218.27,418.82 219.12,410.44C219.59,405.80 220.60,400.51 221.36,398.68C223.54,393.45 228.70,388.27 235.88,384.06C243.11,379.83 245.91,377.19 248.38,372.30C250.01,369.08 250.52,360.53 249.34,356.13L248.70,353.75 L247.30,356.13C245.90,358.49 245.89,358.48 246.44,355.50C246.75,353.85 247.63,348.90 248.40,344.50C249.17,340.10 250.10,335.15 250.46,333.50C251.05,330.83 250.99,330.72 249.90,332.50C249.23,333.60 246.14,337.23 243.04,340.58C239.18,344.73 236.71,348.53 235.23,352.59C232.78,359.30 229.13,365.19 231.13,359.20C231.74,357.38 232.00,355.67 231.72,355.39C231.44,355.11 228.78,357.27 225.82,360.19C219.47,366.44 217.58,371.37 218.60,379.07C219.22,383.69 217.39,395.72 216.25,394.58C216.01,394.35 213.63,396.35 210.96,399.04C207.77,402.25 205.92,405.05 205.57,407.21C205.28,409.02 204.87,411.62 204.66,413.00C204.44,414.38 204.21,412.98 204.14,409.90C203.99,404.00 204.01,403.96 211.86,393.84L215.22,389.50 L214.68,380.00C214.32,373.48 214.56,369.32 215.46,366.75C216.18,364.69 216.57,363.00 216.34,363.00C216.11,363.00 214.21,363.87 212.12,364.94C205.20,368.47 200.08,376.30 199.98,383.50C199.94,386.54 196.57,393.25 193.95,395.50L191.62,397.50 L193.96,394.13C195.72,391.60 196.49,388.69 197.07,382.37C198.33,368.50 202.05,363.02 214.40,356.81C223.64,352.17 225.66,350.42 229.57,343.69C231.54,340.29 235.34,335.25 238.00,332.50C242.53,327.82 249.00,316.90 249.00,313.93C249.00,313.20 247.84,314.94 246.42,317.78C243.87,322.89 239.34,327.28 233.50,330.26C231.85,331.10 229.60,332.79 228.50,334.01C227.40,335.22 225.15,337.17 223.50,338.35L220.50,340.48 L222.76,337.59C224.01,336.00 224.87,334.54 224.68,334.35C224.49,334.16 221.97,334.71 219.08,335.57C211.91,337.70 206.09,343.61 203.72,351.17C202.75,354.29 201.06,357.89 199.98,359.17L198.01,361.50 L199.51,357.78C201.57,352.66 201.47,352.54 197.55,355.53C193.37,358.72 189.01,367.08 188.99,371.95C188.98,373.90 188.66,376.62 188.27,378.00C187.58,380.49 187.58,380.49 187.03,377.50L186.48,374.50 L184.14,378.28C179.28,386.14 180.60,393.64 188.49,403.00C195.33,411.11 196.57,417.28 193.08,425.81C192.03,428.39 190.82,431.85 190.40,433.50C189.68,436.33 189.62,436.37 189.23,434.11C189.01,432.80 189.81,428.79 191.02,425.21C193.61,417.55 193.01,414.07 187.85,406.95L184.68,402.58 L183.05,408.55C182.15,411.83 180.40,415.90 179.15,417.58C177.91,419.27 176.26,422.41 175.49,424.57C174.45,427.49 174.08,427.90 174.04,426.17C174.02,424.88 175.35,420.76 177.00,417.00C180.61,408.77 180.86,402.87 177.92,394.53C176.56,390.64 176.06,387.49 176.47,385.31C176.81,383.49 176.86,382.00 176.57,382.00C175.17,382.00 164.33,387.30 162.68,388.79C158.91,392.20 157.57,396.35 156.95,406.50C156.52,413.57 155.70,417.93 154.16,421.40C151.68,426.98 150.17,427.23 152.49,421.69C153.32,419.68 154.00,415.09 154.00,411.42L154.00,404.77 L150.00,408.38C147.80,410.37 145.58,412.00 145.07,412.00C144.57,412.00 142.77,413.17 141.08,414.59C139.38,416.01 138.00,416.70 138.00,416.12C138.00,415.54 140.42,413.27 143.39,411.08C149.40,406.64 151.94,403.00 154.48,395.18C156.72,388.28 161.21,383.88 170.48,379.48C178.54,375.65 181.27,372.73 183.40,365.67L184.73,361.23 L181.56,362.11C179.82,362.59 175.13,362.88 171.13,362.74L163.88,362.50 L158.69,368.07C155.83,371.13 154.01,372.93 154.63,372.07C156.88,368.94 159.03,364.00 158.14,364.00C157.64,364.00 154.85,365.63 151.96,367.62C149.06,369.62 144.39,372.30 141.59,373.58C135.52,376.36 133.10,378.32 130.00,383.00C126.92,387.65 122.87,392.00 121.63,392.00C121.08,392.00 121.78,390.76 123.20,389.25C124.61,387.74 126.55,384.93 127.50,383.00C128.45,381.07 130.19,378.44 131.37,377.15L133.50,374.79 L125.00,375.15C118.81,375.41 115.28,376.10 112.00,377.71L107.50,379.92 L110.50,377.46C114.42,374.26 120.77,372.32 129.81,371.58C138.53,370.86 142.98,369.16 148.02,364.60C150.08,362.74 153.40,360.62 155.39,359.91C157.93,358.98 159.00,357.99 159.01,356.55C159.01,355.42 159.67,353.25 160.47,351.71L161.92,348.92 L158.21,349.60C151.89,350.74 147.07,353.10 144.38,356.37C141.65,359.68 142.08,358.31 145.18,353.83C146.23,352.31 149.07,350.43 151.76,349.47C154.37,348.54 157.78,347.31 159.35,346.73C160.92,346.15 163.96,344.21 166.11,342.41L170.01,339.15 L164.51,337.91C160.30,336.97 158.12,336.95 155.25,337.83C149.30,339.65 138.77,348.20 135.70,353.68C132.59,359.25 131.40,360.75 127.98,363.48C125.55,365.43 125.56,365.41 128.14,362.48C129.59,360.84 131.79,357.48 133.02,355.00C134.25,352.52 136.15,349.23 137.25,347.68L139.23,344.87 L135.37,345.56C133.24,345.94 128.93,347.32 125.78,348.63C122.63,349.93 119.48,350.98 118.78,350.95C116.81,350.88 127.99,345.20 132.50,343.99C134.70,343.40 141.14,340.60 146.82,337.77L157.14,332.62 L165.37,333.81C177.11,335.51 178.74,335.36 186.00,331.91C191.17,329.46 194.97,328.55 204.56,327.48C222.51,325.48 232.67,320.88 237.48,312.57C241.59,305.48 241.37,304.89 234.00,303.39C220.29,300.59 204.77,293.98 192.76,285.84C185.42,280.86 167.96,263.30 162.84,255.76C157.32,247.63 150.56,233.14 147.32,222.50C144.73,213.98 144.58,212.44 144.58,193.50C144.58,174.56 144.73,173.02 147.32,164.50C150.46,154.18 157.26,139.48 162.72,131.19C167.72,123.63 181.76,109.10 189.93,103.07C208.43,89.39 229.15,82.20 251.79,81.59C266.15,81.21 275.13,82.23 286.65,85.57C305.59,91.06 319.18,99.14 334.26,113.87C349.65,128.89 358.57,143.51 364.56,163.51C366.74,170.79 367.37,175.36 367.88,187.50C368.60,204.61 367.93,211.56 364.41,223.71C359.25,241.51 350.80,256.00 337.51,269.83C320.36,287.68 301.37,298.63 280.00,303.01C270.40,304.97 270.26,305.23 274.58,312.68C279.45,321.09 288.77,325.42 306.03,327.32C315.89,328.40 319.76,329.30 324.50,331.59C330.81,334.64 332.20,334.76 350.09,333.88C357.21,333.52 357.98,333.69 362.88,336.74C365.75,338.52 371.79,341.31 376.30,342.93C383.51,345.53 393.45,350.11 394.80,351.47C395.61,352.28 389.40,350.29 386.89,348.93C384.09,347.42 373.79,344.88 373.13,345.54C372.88,345.78 373.38,346.78 374.23,347.74C375.08,348.71 377.17,352.29 378.87,355.69C380.58,359.10 382.76,362.35 383.74,362.91C384.71,363.48 385.02,363.95 384.44,363.97C382.81,364.02 378.46,358.98 376.15,354.37C373.57,349.22 366.08,342.47 359.50,339.37C353.95,336.76 351.31,336.51 345.71,338.06L341.92,339.12 L346.62,343.00C349.48,345.36 353.23,347.33 356.21,348.05C361.31,349.27 366.22,352.68 368.19,356.35C368.96,357.79 368.28,357.43 366.11,355.27C363.20,352.35 361.22,351.49 352.90,349.48L350.30,348.86 L351.90,353.87C353.03,357.42 354.13,359.05 355.65,359.44C356.83,359.74 360.29,362.02 363.33,364.49C370.27,370.15 371.77,370.70 383.35,371.88C392.43,372.81 397.64,374.59 402.50,378.42C403.64,379.31 402.01,378.92 398.72,377.50C394.38,375.62 391.20,375.00 385.94,375.00L378.93,375.00 L381.46,378.73C382.86,380.78 384.00,382.93 384.00,383.50C384.00,384.08 385.45,386.30 387.21,388.44C389.42,391.11 389.81,392.00 388.46,391.26C387.38,390.67 384.47,387.34 381.98,383.85C378.18,378.51 376.24,376.86 369.82,373.50C365.61,371.30 360.32,368.20 358.07,366.60C355.81,365.01 353.65,364.02 353.27,364.40C352.62,365.05 352.99,365.83 356.89,372.00C358.37,374.34 358.36,374.41 356.74,373.14C355.80,372.39 354.08,370.24 352.92,368.36C349.82,363.35 346.32,361.89 339.16,362.64C335.65,363.01 331.88,362.81 329.99,362.15C326.83,361.04 326.80,361.06 327.47,363.77C329.54,372.07 332.53,375.34 342.74,380.51C351.50,384.95 354.14,387.92 357.00,396.50C359.43,403.79 362.35,407.82 367.55,411.03C369.46,412.21 371.53,414.15 372.15,415.34L373.27,417.50 L370.89,415.43C369.57,414.30 367.15,412.55 365.50,411.56C363.85,410.56 361.26,408.59 359.75,407.18L357.00,404.63 L356.85,408.56C356.61,415.06 357.12,419.32 358.55,422.75C360.47,427.38 359.44,426.77 356.86,421.75C355.22,418.56 354.52,414.88 354.03,407.00C353.30,395.27 351.87,391.48 346.75,387.70C344.21,385.82 336.13,382.00 334.70,382.00C334.56,382.00 334.61,383.69 334.81,385.76C335.02,387.99 334.32,391.65 333.08,394.79C330.20,402.10 330.36,409.36 333.56,416.34C334.96,419.42 336.32,423.63 336.57,425.71L337.02,429.50 L335.26,424.95C334.29,422.45 332.48,418.79 331.24,416.82C329.02,413.30 326.76,404.57 327.80,403.53C328.09,403.24 327.81,403.00 327.18,403.00C325.33,403.00 319.11,412.16 318.37,415.98C317.93,418.24 318.27,421.08 319.35,424.11C320.26,426.67 320.95,430.73 320.88,433.13L320.76,437.50 L319.99,432.90C319.56,430.37 318.49,426.91 317.60,425.20C316.72,423.50 316.00,419.88 316.00,417.16C316.00,412.04 316.09,411.87 325.91,398.36C330.51,392.03 331.14,385.98 327.89,379.32L325.55,374.50 L325.00,377.50C324.54,379.96 324.32,380.17 323.72,378.67C323.33,377.66 323.00,375.54 323.00,373.96C323.00,368.89 319.20,360.61 315.01,356.51C310.90,352.50 309.62,353.28 312.06,358.32C313.06,360.38 313.00,360.37 311.07,358.15C309.94,356.86 308.36,353.58 307.55,350.87C305.54,344.10 302.99,340.85 297.32,337.83C289.56,333.69 283.88,333.17 288.52,337.02C289.36,337.72 289.81,338.53 289.51,338.82C289.21,339.12 287.51,337.95 285.72,336.21C283.93,334.48 279.55,331.11 275.98,328.73C271.35,325.64 268.57,322.85 266.25,318.99C262.04,311.99 262.10,313.27 266.39,321.77C268.25,325.47 272.30,331.33 275.39,334.79C278.47,338.24 281.86,342.74 282.91,344.79C285.54,349.91 289.38,353.23 297.00,357.00C304.18,360.54 309.35,364.92 311.73,369.49C312.59,371.13 313.68,376.27 314.15,380.91C314.69,386.19 315.76,390.68 317.03,392.92L319.06,396.50 L316.09,393.30C313.33,390.33 311.02,384.68 311.01,380.87C311.00,377.94 308.12,372.28 305.13,369.28C302.66,366.81 295.92,362.69 295.38,363.31C295.29,363.42 295.70,365.82 296.29,368.67C297.11,372.63 297.04,375.15 296.00,379.51C295.13,383.11 294.98,385.66 295.57,386.46C299.29,391.49 300.55,393.83 302.64,399.58C303.94,403.16 304.95,407.53 304.90,409.30L304.79,412.50 L303.77,408.63L302.74,404.75 L299.39,411.63C297.54,415.41 296.02,419.40 296.01,420.50C296.01,421.60 297.33,424.98 298.96,428.00C300.59,431.02 301.90,434.85 301.87,436.50L301.82,439.50 L300.82,436.01C300.27,434.09 298.51,430.74 296.91,428.56C293.31,423.67 293.07,418.04 296.13,410.92C298.75,404.83 298.30,398.64 294.89,393.85L292.52,390.51 L291.93,393.51L291.33,396.50 L290.56,392.79C290.14,390.74 289.28,388.65 288.65,388.12C287.41,387.10 276.77,382.90 276.39,383.28C276.26,383.41 276.48,385.09 276.88,387.01C277.28,388.93 277.22,392.30 276.74,394.50C276.26,396.70 275.65,401.20 275.38,404.50C274.86,410.90 274.89,410.97 281.69,419.94C285.54,425.01 287.56,433.25 286.14,438.16C285.20,441.44 285.18,441.41 285.07,436.50C284.93,430.28 282.33,424.41 277.23,418.81C275.07,416.44 272.80,413.60 272.18,412.50C271.20,410.75 271.05,410.99 270.94,414.50L270.82,418.50 L269.81,415.00C268.82,411.54 269.21,408.38 272.23,395.81C273.85,389.04 272.09,384.17 265.44,376.93C262.45,373.68 259.93,370.45 259.85,369.76C259.59,367.55 257.83,386.32 257.86,391.00C257.88,394.03 257.64,394.88 257.13,393.60C255.89,390.49 253.49,397.49 253.57,404.00C253.65,411.47 258.03,419.74 265.99,427.50C271.93,433.28 275.00,437.58 275.00,440.10C275.00,440.76 273.76,439.46 272.25,437.22C270.74,434.97 267.70,431.84 265.50,430.26C258.47,425.22 258.66,425.22 259.39,430.11C260.23,435.75 258.80,443.21 255.55,450.07C254.13,453.06 253.18,454.74 253.43,453.81ZM292.93,375.72C292.97,373.09 292.39,369.49 291.64,367.72C290.30,364.54 280.30,354.36 279.41,355.26C279.15,355.51 279.41,356.94 279.97,358.42C280.53,359.90 280.58,360.86 280.08,360.55C279.58,360.24 277.94,356.78 276.44,352.85C274.40,347.50 272.41,344.42 268.48,340.52C265.60,337.66 262.88,334.24 262.44,332.91C261.81,330.99 261.37,332.14 260.33,338.50C258.84,347.53 259.39,353.29 262.09,357.11C263.11,358.55 263.70,359.97 263.40,360.27C262.48,361.18 266.65,368.34 269.94,371.50C271.65,373.15 277.21,376.52 282.28,379.00C292.64,384.06 292.81,384.01 292.93,375.72ZM183.40,356.11C185.66,355.09 188.82,352.85 190.44,351.13L193.37,348.00 L190.94,347.95C188.84,347.92 189.08,347.60 192.64,345.70C194.92,344.49 198.41,341.36 200.39,338.74L204.01,333.98 L199.75,334.56C193.70,335.39 187.54,337.75 185.47,340.04C183.64,342.06 181.40,342.78 182.50,341.00C183.45,339.47 178.41,339.80 174.23,341.55C168.50,343.94 163.40,349.60 161.60,355.59C160.99,357.59 161.34,357.68 170.14,357.82C177.14,357.92 180.27,357.52 183.40,356.11ZM350.00,356.33C350.00,353.50 345.93,347.05 342.49,344.42C338.45,341.34 326.99,338.07 329.08,340.60C331.43,343.43 329.37,342.85 325.11,339.47C321.04,336.25 319.20,335.62 311.29,334.72L308.07,334.36 L311.43,338.93C313.33,341.52 316.67,344.45 319.14,345.69C322.79,347.52 323.10,347.89 321.06,347.94L318.63,348.00 L321.56,351.13C326.43,356.30 331.28,357.96 341.25,357.84C348.06,357.76 350.00,357.42 350.00,356.33ZM159.85,290.33C158.06,289.85 157.04,287.10 157.01,282.68C157.00,279.11 158.46,276.36 161.15,274.92C162.99,273.93 163.75,274.29 167.00,277.64C169.06,279.76 171.47,282.08 172.37,282.79C174.59,284.54 174.43,285.67 171.55,288.55C169.16,290.93 164.68,291.61 159.85,290.33ZM243.36,289.43C210.99,283.99 184.68,265.57 170.34,238.31C161.82,222.11 158.49,207.41 159.28,189.57C160.31,166.35 168.81,145.64 184.45,128.26C195.23,116.29 214.21,104.80 231.50,99.81C238.51,97.79 241.60,97.51 256.50,97.56C272.12,97.61 274.23,97.84 282.50,100.38C341.04,118.30 369.65,181.36 343.58,235.02C329.59,263.81 304.11,282.88 271.49,288.95C264.22,290.30 262.62,290.84 265.62,290.91C271.81,291.05 287.83,286.65 297.32,282.20C308.90,276.77 317.21,270.97 325.78,262.32C353.90,233.95 362.19,192.64 347.06,156.20C334.85,126.77 307.89,104.31 276.50,97.42C264.01,94.67 245.20,95.08 232.50,98.37C197.08,107.54 169.56,135.10 160.43,170.52C155.91,188.08 157.11,209.34 163.60,226.72C175.28,257.99 203.39,282.46 235.52,289.34C239.36,290.16 244.53,290.83 247.00,290.82C250.61,290.80 249.89,290.53 243.36,289.43ZM341.22,289.44C338.20,287.33 338.29,283.28 341.39,281.87C342.70,281.27 344.26,279.73 344.84,278.45C345.42,277.17 346.83,275.63 347.96,275.02C349.66,274.11 350.44,274.35 352.51,276.42C355.49,279.40 356.02,286.84 353.43,289.43C351.39,291.47 344.13,291.48 341.22,289.44ZM249.36,281.25C250.42,274.80 250.00,268.70 248.11,263.22C246.32,258.04 246.33,257.85 248.26,253.94C249.89,250.65 250.26,247.70 250.37,237.14L250.50,224.34 L256.10,224.41L261.70,224.48 L261.82,236.14C261.90,244.28 262.44,249.11 263.59,252.15C265.62,257.50 265.61,259.06 263.54,266.00C261.52,272.76 262.23,283.77 264.75,284.73C267.11,285.64 283.74,281.58 292.34,278.00C299.98,274.82 315.05,265.41 315.70,263.42C316.17,261.98 308.55,253.41 303.63,249.85C301.47,248.28 298.70,247.00 297.47,247.00C295.78,247.00 295.10,246.25 294.62,243.83C293.84,239.95 287.92,232.14 280.13,224.70L274.28,219.13 L278.10,215.40L281.91,211.68 L289.01,218.37C297.87,226.73 303.29,230.69 306.99,231.50C309.18,231.98 310.03,232.87 310.55,235.21C311.26,238.48 316.94,245.20 323.11,250.09L326.86,253.06 L331.45,246.62C339.76,234.97 348.00,213.97 348.00,204.43C348.00,200.54 346.62,200.03 335.96,200.01C330.47,200.00 327.40,200.52 324.64,201.93C320.89,203.84 320.84,203.84 317.38,201.80C314.49,200.09 311.62,199.66 300.45,199.23L287.00,198.72 L287.00,193.49L287.00,188.26 L301.01,187.81C313.44,187.41 315.35,187.12 317.98,185.18L320.93,182.99 L324.22,184.99C326.86,186.60 329.24,186.99 336.50,186.98C341.45,186.97 346.12,186.58 346.88,186.10C350.19,184.00 345.13,164.65 337.52,150.29C332.21,140.28 328.29,135.00 326.17,135.00C323.61,135.00 311.34,148.19 310.55,151.79C309.99,154.31 309.15,155.14 306.35,155.91C302.07,157.10 297.60,160.39 288.71,168.90L281.93,175.40 L278.24,171.70L274.55,168.01 L280.60,161.76C290.10,151.96 293.92,146.94 294.58,143.43C295.10,140.67 295.72,140.09 298.78,139.51C301.41,139.02 304.19,137.02 309.18,132.02C312.93,128.27 316.00,124.71 316.00,124.11C316.00,122.25 306.96,116.17 296.50,111.00C286.79,106.20 272.78,102.02 266.37,102.01C263.26,102.00 263.23,102.05 262.56,108.27C261.88,114.64 263.05,122.50 265.18,125.92C266.09,127.38 265.96,128.56 264.57,131.50C262.60,135.64 260.93,151.20 261.71,158.10L262.20,162.51 L256.45,162.34L250.69,162.18 L250.89,154.84C251.15,145.31 249.37,133.06 247.40,130.89C246.00,129.35 246.02,128.87 247.54,125.93C249.56,122.01 250.52,112.93 249.57,106.61C248.91,102.21 248.73,102.00 245.60,102.00C240.89,102.00 228.36,105.38 219.70,108.98C213.05,111.75 200.66,119.16 197.21,122.43C194.54,124.96 207.47,137.96 214.54,139.85C216.44,140.36 217.43,141.37 217.69,143.04C218.21,146.49 222.16,151.86 230.63,160.66L237.94,168.26 L235.46,170.21C234.10,171.28 232.49,173.13 231.87,174.33C231.20,175.63 232.50,174.82 235.13,172.30C244.30,163.48 257.06,161.11 268.09,166.17C278.99,171.18 285.02,179.83 285.76,191.50C286.33,200.56 283.71,207.87 277.75,213.90C270.71,221.03 267.00,222.49 256.00,222.50C247.50,222.50 246.03,222.22 242.00,219.84C231.50,213.62 226.50,204.92 226.57,193.00C226.61,187.16 227.13,184.51 228.95,181.02L231.28,176.54 L221.56,167.28C214.42,160.48 210.54,157.56 206.92,156.28C203.78,155.16 202.00,153.95 202.00,152.92C202.00,150.12 196.31,142.67 190.80,138.24L185.50,133.99 L182.80,137.24C174.99,146.66 165.91,167.93 164.46,180.20C163.80,185.74 163.86,185.93 166.36,186.55C167.78,186.91 172.96,187.04 177.87,186.85C184.91,186.57 187.24,186.10 188.90,184.60C190.86,182.82 191.13,182.80 192.82,184.34C195.38,186.65 203.60,188.00 215.14,188.00L225.00,188.00 L225.00,193.36L225.00,198.71 L212.03,199.24C201.82,199.65 198.19,200.19 195.01,201.77C191.03,203.74 190.91,203.74 187.27,201.88C183.54,199.98 171.38,199.26 166.25,200.63C163.35,201.41 163.38,203.29 166.45,215.39C169.12,225.94 174.59,237.75 181.10,247.02L185.28,252.98 L189.89,249.61C195.37,245.60 200.90,238.74 201.64,235.06C202.06,232.97 203.19,232.05 206.98,230.70C210.41,229.48 214.44,226.48 221.02,220.24L230.25,211.49 L233.96,215.20L237.67,218.90 L231.02,225.70C222.57,234.35 218.00,240.65 218.00,243.68C218.00,245.08 217.28,246.28 216.25,246.58C211.25,248.07 205.42,251.85 201.83,255.93C195.05,263.63 194.98,263.19 204.25,269.35C208.79,272.36 215.20,276.03 218.50,277.50C225.41,280.59 241.03,284.88 245.62,284.95C248.46,285.00 248.79,284.66 249.36,281.25ZM171.25,280.83C169.46,279.72 168.00,278.44 168.00,277.98C168.00,277.52 167.31,276.45 166.47,275.61C164.51,273.65 165.50,269.34 168.25,267.87C170.00,266.93 171.00,267.53 175.80,272.32C181.30,277.82 181.32,277.86 179.64,280.43C177.65,283.46 175.67,283.56 171.25,280.83ZM333.20,281.80C330.81,279.41 331.97,276.30 337.00,271.60C341.25,267.62 342.29,267.09 343.98,267.99C346.58,269.38 347.57,273.41 345.84,275.51C340.03,282.57 335.98,284.58 333.20,281.80ZM215.00,244.65C215.00,244.47 213.99,243.45 212.75,242.40L210.50,240.50 L212.40,242.75C214.20,244.86 215.00,245.46 215.00,244.65ZM299.50,243.00C300.50,241.90 301.08,241.00 300.81,241.00C300.53,241.00 299.50,241.90 298.50,243.00C297.50,244.10 296.92,245.00 297.19,245.00C297.47,245.00 298.50,244.10 299.50,243.00ZM206.77,236.00C206.08,234.90 205.11,234.00 204.60,234.00C204.10,234.00 204.50,234.90 205.50,236.00C206.50,237.10 207.47,238.00 207.66,238.00C207.86,238.00 207.45,237.10 206.77,236.00ZM306.50,236.00C307.50,234.90 308.08,234.00 307.81,234.00C307.53,234.00 306.50,234.90 305.50,236.00C304.50,237.10 303.92,238.00 304.19,238.00C304.47,238.00 305.50,237.10 306.50,236.00ZM268.62,213.43C271.59,211.59 274.61,208.56 276.47,205.55C279.10,201.29 279.50,199.71 279.50,193.49C279.50,187.28 279.10,185.70 276.47,181.45C272.34,174.77 265.72,170.75 257.89,170.19C235.32,168.55 223.85,195.04 240.29,210.82C247.57,217.81 259.72,218.93 268.62,213.43ZM260.54,213.12C265.19,211.01 269.74,206.05 270.58,202.17C270.90,200.70 271.36,198.89 271.59,198.14C272.33,195.79 270.05,189.21 267.40,186.06C262.36,180.07 252.33,179.83 246.94,185.56C243.53,189.20 243.49,196.36 246.86,199.09C250.36,201.92 255.56,201.61 257.63,198.44C259.19,196.06 259.19,195.76 257.65,194.23C256.12,192.69 256.00,192.76 256.00,195.27C256.00,197.35 255.40,198.11 253.33,198.63C251.19,199.17 250.19,198.76 248.33,196.60C245.50,193.31 245.46,192.40 247.95,188.31C250.75,183.72 255.95,182.44 261.61,184.94C266.59,187.15 269.00,191.07 269.00,197.00C269.00,210.64 252.73,217.66 241.53,208.85C232.73,201.92 232.79,186.22 241.66,177.80C256.87,163.37 282.49,178.63 277.03,198.88C275.03,206.31 265.07,214.96 258.50,214.96C257.24,214.96 258.00,214.28 260.54,213.12ZM136.31,201.23C134.16,199.54 133.41,196.06 133.82,189.78C134.04,186.44 138.57,183.62 141.28,185.14C142.67,185.91 143.00,187.54 143.00,193.51C143.00,199.82 142.71,201.08 141.07,201.96C138.66,203.25 138.93,203.29 136.31,201.23ZM370.72,201.86C369.34,201.09 369.00,199.46 369.00,193.50C369.00,184.96 370.41,183.12 375.08,185.54C377.98,187.04 379.13,191.09 378.26,196.79C377.67,200.67 373.55,203.44 370.72,201.86ZM121.37,198.43C119.52,196.46 118.00,194.17 118.00,193.33C118.00,192.49 119.53,190.27 121.40,188.40C124.98,184.82 129.84,183.81 131.72,186.25C132.86,187.74 132.84,198.96 131.69,200.75C130.03,203.32 124.90,202.17 121.37,198.43ZM190.68,199.81C190.36,199.01 190.13,199.25 190.08,200.42C190.04,201.47 190.27,202.06 190.60,201.73C190.94,201.40 190.97,200.53 190.68,199.81ZM321.68,199.81C321.36,199.01 321.13,199.25 321.08,200.42C321.04,201.47 321.27,202.06 321.60,201.73C321.94,201.40 321.97,200.53 321.68,199.81ZM380.24,200.75C379.69,200.06 379.24,196.80 379.24,193.50C379.24,186.51 380.13,185.00 384.25,185.00C386.41,185.00 388.22,186.01 390.63,188.57C392.48,190.54 394.00,192.77 394.00,193.54C394.00,194.31 392.41,196.52 390.47,198.47C386.77,202.16 382.19,203.19 380.24,200.75ZM190.68,186.81C190.36,186.01 190.13,186.25 190.08,187.42C190.04,188.47 190.27,189.06 190.60,188.73C190.94,188.40 190.97,187.53 190.68,186.81ZM321.68,186.81C321.36,186.01 321.13,186.25 321.08,187.42C321.04,188.47 321.27,189.06 321.60,188.73C321.94,188.40 321.97,187.53 321.68,186.81ZM206.50,151.00C207.50,149.90 208.08,149.00 207.81,149.00C207.53,149.00 206.50,149.90 205.50,151.00C204.50,152.10 203.92,153.00 204.19,153.00C204.47,153.00 205.50,152.10 206.50,151.00ZM308.00,152.65C308.00,152.47 306.99,151.45 305.75,150.40L303.50,148.50 L305.40,150.75C307.20,152.86 308.00,153.46 308.00,152.65ZM213.50,144.00C214.50,142.90 215.08,142.00 214.81,142.00C214.53,142.00 213.50,142.90 212.50,144.00C211.50,145.10 210.92,146.00 211.19,146.00C211.47,146.00 212.50,145.10 213.50,144.00ZM299.36,143.50C299.05,142.68 298.33,142.00 297.77,142.00C297.19,142.00 297.28,142.64 298.00,143.50C298.68,144.32 299.40,145.00 299.59,145.00C299.78,145.00 299.68,144.32 299.36,143.50ZM250.73,127.40C250.40,127.06 249.53,127.03 248.81,127.32C248.01,127.64 248.25,127.87 249.42,127.92C250.47,127.96 251.06,127.73 250.73,127.40ZM167.22,117.75C164.70,114.69 166.10,110.32 170.88,106.29C174.79,102.98 178.87,103.39 180.28,107.22C180.72,108.40 179.49,110.50 176.34,113.97C171.75,119.01 169.14,120.09 167.22,117.75ZM335.67,113.85C331.15,109.18 330.93,108.73 332.29,106.69C335.06,102.49 337.95,103.18 344.10,109.47C347.36,112.81 347.38,112.88 346.02,116.43C344.52,120.39 341.22,119.57 335.67,113.85ZM158.56,109.78C156.81,107.29 156.49,100.82 157.97,98.05C160.05,94.17 170.79,94.87 173.02,99.04C174.37,101.55 174.56,101.18 169.12,106.88C163.77,112.48 160.99,113.24 158.56,109.78ZM343.25,107.40C338.49,102.36 338.03,100.19 341.11,97.40C343.55,95.19 351.00,94.93 353.46,96.97C355.50,98.66 355.49,106.85 353.44,109.78C351.08,113.15 348.00,112.43 343.25,107.40ZM247.35,78.47C246.22,75.53 248.98,72.18 253.11,71.48C260.51,70.23 265.47,72.65 264.83,77.19C264.52,79.36 264.00,79.52 256.23,79.79C249.39,80.03 247.86,79.81 247.35,78.47ZM248.35,68.84C246.08,66.33 247.49,61.65 251.61,58.04C255.67,54.47 255.68,54.47 259.27,56.84C263.26,59.47 264.93,62.06 264.97,65.69C265.01,69.79 263.89,70.40 256.21,70.48C251.47,70.53 249.51,70.12 248.35,68.84Z"/></svg>
